<svg id="Layer_1" data-name="Layer 1" xmlns="http://www.w3.org/2000/svg" xmlns:xlink="http://www.w3.org/1999/xlink" viewBox="0 0 864 252"><defs><style>.cls-1{fill:none;}.cls-2{clip-path:url(#clip-path);}.cls-3{font-size:150px;fill:#3b3b3c;font-family:Rajdhani-Semibold, Rajdhani;font-weight:700;letter-spacing:0.01em;}.cls-12,.cls-4{fill:#93c4ca;}.cls-5,.cls-6{fill:#5bb6c8;}.cls-6{font-size:50px;font-family:Rajdhani-Medium, Rajdhani;letter-spacing:-0.03em;}.cls-7{fill:#8cbac0;}.cls-8{fill:#87b3b9;}.cls-9{fill:#54a7b7;}.cls-10{fill:#fdba54;}.cls-11{fill:#57aebe;}.cls-12,.cls-14{opacity:0.25;}.cls-13{fill:#efb050;}.cls-14{fill:#50a6b7;}</style><clipPath id="clip-path"><rect class="cls-1" x="271.91" y="8.81" width="579.33" height="233"/></clipPath></defs><title>Artboard 1</title><g class="cls-2"><text class="cls-3" transform="translate(271.91 129.25)">Data</text><text class="cls-3" transform="translate(509.24 225.34)">Joint</text><rect class="cls-4" x="561.49" y="81.06" width="45.5" height="45.5"/><rect class="cls-5" x="513.32" y="131.31" width="45.5" height="45.5"/><text class="cls-6" transform="translate(606.99 113.46)">open source</text></g><g id="_Group_" data-name="&lt;Group&gt;"><polygon class="cls-4" points="243.28 47.97 243.28 113.03 186.93 145.57 186.93 80.53 243.28 47.97"/><polygon class="cls-7" points="130.58 48 130.58 47.99 130.58 47.97 186.93 15.43 243.28 47.97 186.93 80.53 130.58 48"/><polygon class="cls-5" points="186.93 145.59 186.93 210.66 130.58 243.19 130.58 178.13 186.93 145.59"/><polygon class="cls-4" points="186.93 145.57 186.93 145.59 130.6 113.07 130.62 113.06 186.93 145.57"/><polygon class="cls-8" points="186.93 80.53 186.93 145.57 130.62 113.06 186.93 80.53"/><polygon class="cls-8" points="130.58 48 186.93 80.53 130.62 113.06 130.58 113.03 130.58 47.99 130.58 48"/><polygon class="cls-9" points="186.93 145.59 130.58 178.13 130.58 178.09 130.58 176.19 130.58 113.08 130.6 113.07 186.93 145.59"/><polygon class="cls-10" points="130.58 113.06 130.56 113.07 74.23 80.53 74.25 80.51 130.58 47.99 130.58 113.03 130.62 113.06 130.6 113.07 130.58 113.06"/><polygon class="cls-8" points="130.6 113.07 130.58 113.08 130.58 113.06 130.6 113.07"/><polygon class="cls-11" points="130.58 178.13 130.58 243.19 74.23 210.66 74.23 145.9 74.23 145.59 130.58 178.13"/><polygon class="cls-9" points="130.58 178.09 130.58 178.13 74.23 145.59 130.56 113.07 130.58 113.08 130.58 176.19 130.58 178.09"/><polygon class="cls-9" points="130.58 113.06 130.58 113.08 130.56 113.07 130.58 113.06"/><polygon class="cls-10" points="130.56 113.07 74.23 145.59 74.23 80.86 74.23 80.53 130.56 113.07"/><polygon class="cls-12" points="130.6 178.13 130.6 113.08 186.95 80.53 186.95 145.59 130.6 178.13"/><polygon class="cls-13" points="130.6 47.95 74.25 80.51 17.91 47.98 17.9 47.98 17.9 47.95 74.25 15.42 130.6 47.95"/><polygon class="cls-14" points="130.6 113.06 130.6 178.13 74.25 145.59 74.25 80.83 74.25 80.54 74.25 80.53 130.6 113.06"/></g></svg>