<svg id="Layer_1" data-name="Layer 1" xmlns="http://www.w3.org/2000/svg" viewBox="0 0 864 252"><defs><style>.cls-1{fill:#fff;}.cls-10,.cls-2{fill:#93c4ca;}.cls-3{fill:#5bb6c8;}.cls-4{fill:none;}.cls-5{fill:#8cbac0;}.cls-6{fill:#87b3b9;}.cls-7{fill:#54a7b7;}.cls-8{fill:#fdba54;}.cls-9{fill:#57aebe;}.cls-10,.cls-12{opacity:0.25;}.cls-11{fill:#efb050;}.cls-12{fill:#50a6b7;}.cls-13{fill:#f7941d;}</style></defs><title>djTutorialBETAside</title><path class="cls-1" d="M296.68,89.21V42A1.16,1.16,0,0,1,298,40.73h19q5.65,0,8.87,3.14t3.21,8.87V78.52q0,5.65-3.21,8.83T317,90.52H298A1.16,1.16,0,0,1,296.68,89.21ZM305,83.94H316q5.58,0,5.58-5.73V53q0-5.73-5.58-5.73H305q-.85,0-.85.77v35A.75.75,0,0,0,305,83.94Z"/><path class="cls-1" d="M354.29,90.52h-3q-5.73,0-8.87-3.17t-3.14-8.83V63q0-5.73,3.14-8.87T351.27,51h17.35Q370,51,370,52.35V89.21q0,1.32-1.39,1.32h-4.88a1.16,1.16,0,0,1-1.32-1.32V86.42h-.31Q360.25,90.53,354.29,90.52Zm8.13-13.16v-19c0-.52-.28-.77-.85-.77h-9.21q-5.58,0-5.58,5.73V78.21q0,5.73,5.58,5.73h3.72Q362.42,83.94,362.42,77.36Z"/><path class="cls-1" d="M382,57.61h-3.72a1.49,1.49,0,0,1-1-.27,1.35,1.35,0,0,1-.27-1v-4A1.16,1.16,0,0,1,378.29,51H382a.68.68,0,0,0,.77-.77v-7q0-1.32,1.39-1.32h4.88a1.16,1.16,0,0,1,1.32,1.32v7q0,.78.85.77h7.2q1.39,0,1.39,1.32v4q0,1.24-1.39,1.24h-7.2c-.57,0-.85.26-.85.77v19.9q0,5.65,5.81,5.65h3q1.39,0,1.39,1.32v4q0,1.24-1.39,1.24H395q-5.73,0-9-3.1t-3.25-8.75V58.39A.69.69,0,0,0,382,57.61Z"/><path class="cls-1" d="M423.44,90.52h-3q-5.73,0-8.87-3.17t-3.14-8.83V63q0-5.73,3.14-8.87T420.42,51h17.35q1.39,0,1.39,1.32V89.21q0,1.32-1.39,1.32h-4.88a1.16,1.16,0,0,1-1.32-1.32V86.42h-.31Q429.4,90.53,423.44,90.52Zm8.13-13.16v-19c0-.52-.28-.77-.85-.77H421.5q-5.58,0-5.58,5.73V78.21q0,5.73,5.58,5.73h3.72Q431.57,83.94,431.57,77.36Z"/><path class="cls-1" d="M441.81,90.33h4.88q1.32,0,1.32,1.24v36.55q0,5.65-3.17,8.83T436,140.13h-7.74q-5.73,0-8.91-3.17t-3.17-8.83v-7q0-1.32,1.39-1.32h4.88a1.16,1.16,0,0,1,1.32,1.32v6.66q0,5.73,5.58,5.73h5.5q5.58,0,5.58-5.73V91.65Q440.41,90.34,441.81,90.33Z"/><path class="cls-1" d="M477.35,140.13h-6.81q-5.73,0-8.87-3.17t-3.14-8.83V112.64q0-5.73,3.14-8.87t8.87-3.14h6.81q5.65,0,8.87,3.14t3.21,8.87v15.49q0,5.65-3.21,8.83T477.35,140.13Zm-5.73-6.58h4.72q5.58,0,5.58-5.65v-15q0-5.65-5.58-5.65h-4.72a5.74,5.74,0,0,0-4.26,1.36,6,6,0,0,0-1.32,4.3v15a6,6,0,0,0,1.32,4.3A5.74,5.74,0,0,0,471.62,133.54Z"/><path class="cls-1" d="M499.88,94.05V87a1.1,1.1,0,0,1,1.24-1.24h5A1.1,1.1,0,0,1,507.4,87v7q0,1.32-1.24,1.32h-5Q499.88,95.37,499.88,94.05Zm0,44.76V102q0-1.32,1.24-1.32h5A1.16,1.16,0,0,1,507.4,102v36.86a1.5,1.5,0,0,1-.27,1,1.35,1.35,0,0,1-1,.27h-5A1.16,1.16,0,0,1,499.88,138.81Z"/><path class="cls-1" d="M524.89,140.13H520a1.16,1.16,0,0,1-1.32-1.32V102a1.16,1.16,0,0,1,1.32-1.32h4.88a1.16,1.16,0,0,1,1.32,1.32v2.79h.31q1.86-4.1,7.82-4.1h3.41q5.65,0,8.67,3.1t3,8.91v26.17q0,1.32-1.39,1.32h-4.88a1.16,1.16,0,0,1-1.32-1.32V112.95q0-5.73-5.65-5.73h-3.64q-6.35,0-6.35,6.58v25A1.16,1.16,0,0,1,524.89,140.13Z"/><path class="cls-1" d="M561.06,107.22h-3.72a1.49,1.49,0,0,1-1-.27,1.35,1.35,0,0,1-.27-1v-4a1.16,1.16,0,0,1,1.32-1.32h3.72a.68.68,0,0,0,.77-.77v-7q0-1.32,1.39-1.32h4.88a1.16,1.16,0,0,1,1.32,1.32v7q0,.78.85.77h7.2q1.39,0,1.39,1.32v4q0,1.24-1.39,1.24h-7.2c-.57,0-.85.26-.85.77v19.9q0,5.65,5.81,5.65h3q1.39,0,1.39,1.32v4q0,1.24-1.39,1.24h-4.18q-5.73,0-9-3.1t-3.25-8.75V108A.69.69,0,0,0,561.06,107.22Z"/><rect class="cls-2" x="440.52" y="65.64" width="23.49" height="23.49"/><rect class="cls-3" x="415.65" y="91.58" width="23.49" height="23.49"/><path class="cls-3" d="M471.57,82.37h-2.22a3.51,3.51,0,0,1-3.82-3.82V73a3.51,3.51,0,0,1,3.82-3.82h2.22A3.51,3.51,0,0,1,475.39,73v5.52a3.51,3.51,0,0,1-3.82,3.82Zm-2-1.65h1.81a1.94,1.94,0,0,0,2.17-2.22V73.08a1.94,1.94,0,0,0-2.17-2.22h-1.81a1.94,1.94,0,0,0-2.17,2.22V78.5A1.94,1.94,0,0,0,469.56,80.72Z"/><path class="cls-3" d="M479.44,86.14h-1.16a.32.32,0,0,1-.36-.36V69.56a.32.32,0,0,1,.36-.36h1.16a.32.32,0,0,1,.36.36v1h.1a2.61,2.61,0,0,1,2.63-1.37h1.55a3.6,3.6,0,0,1,2.72,1,3.89,3.89,0,0,1,1,2.81v5.52a3.89,3.89,0,0,1-1,2.81,3.6,3.6,0,0,1-2.72,1h-1.55A2.61,2.61,0,0,1,479.91,81h-.1v4.78A.32.32,0,0,1,479.44,86.14Zm2.76-5.42h1.52a2,2,0,0,0,2.19-2.25V73.1a2,2,0,0,0-2.19-2.25H482.2a2.41,2.41,0,0,0-1.78.62,2.37,2.37,0,0,0-.62,1.75v5.11a2.37,2.37,0,0,0,.62,1.76A2.41,2.41,0,0,0,482.2,80.72Z"/><path class="cls-3" d="M499.34,82.37h-5.47a3.51,3.51,0,0,1-3.82-3.82V73a3.51,3.51,0,0,1,3.82-3.82H496a3.77,3.77,0,0,1,2.79,1,3.81,3.81,0,0,1,1,2.81V76.3q0,.39-.36.39h-7.3q-.26,0-.26.23V78.5a2,2,0,0,0,2.17,2.25h5.27a.32.32,0,0,1,.36.36V82C499.71,82.26,499.58,82.37,499.34,82.37Zm-7.18-7h5.58a.23.23,0,0,0,.26-.26v-2a1.94,1.94,0,0,0-2.17-2.22h-1.75a1.94,1.94,0,0,0-2.17,2.22v2A.23.23,0,0,0,492.17,75.32Z"/><path class="cls-3" d="M503.76,82.37H502.6a.32.32,0,0,1-.36-.36V69.56a.32.32,0,0,1,.36-.36h1.16a.32.32,0,0,1,.36.36v1h.1a2.61,2.61,0,0,1,2.63-1.37h1.45a3.65,3.65,0,0,1,2.74,1A3.87,3.87,0,0,1,512,73v9a.32.32,0,0,1-.36.36h-1.16a.32.32,0,0,1-.36-.36V73.1A2,2,0,0,0,508,70.86h-1.45a2.41,2.41,0,0,0-1.78.62,2.37,2.37,0,0,0-.62,1.75V82A.32.32,0,0,1,503.76,82.37Z"/><path class="cls-3" d="M524.92,82.37h-4.59A.32.32,0,0,1,520,82v-.9q0-.34.36-.34h4.34q2,0,2-1.5v-.49a1.88,1.88,0,0,0-1.32-1.88l-3-1.29a4.48,4.48,0,0,1-1.88-1.28,3.11,3.11,0,0,1-.57-1.95q0-3.18,3.48-3.17h4.23a.32.32,0,0,1,.36.36v.9c0,.22-.12.34-.36.34h-3.9a2.2,2.2,0,0,0-1.41.39,1.14,1.14,0,0,0-.48.9v.44q0,1.08,1.47,1.65l3,1.37a3.35,3.35,0,0,1,1.82,1.37,4.83,4.83,0,0,1,.48,2.35Q528.61,82.37,524.92,82.37Z"/><path class="cls-3" d="M536.64,82.37h-2.22a3.51,3.51,0,0,1-3.82-3.82V73a3.51,3.51,0,0,1,3.82-3.82h2.22A3.51,3.51,0,0,1,540.46,73v5.52a3.51,3.51,0,0,1-3.82,3.82Zm-2-1.65h1.81a1.94,1.94,0,0,0,2.17-2.22V73.08a1.94,1.94,0,0,0-2.17-2.22h-1.81a1.94,1.94,0,0,0-2.17,2.22V78.5A1.94,1.94,0,0,0,534.63,80.72Z"/><path class="cls-3" d="M548,82.37h-1.45a3.64,3.64,0,0,1-2.74-1,3.86,3.86,0,0,1-1-2.81v-9a.32.32,0,0,1,.36-.36h1.16a.32.32,0,0,1,.36.36v8.91q0,2.25,2.14,2.25h1.47a2.41,2.41,0,0,0,1.78-.62,2.37,2.37,0,0,0,.62-1.76V69.56a.32.32,0,0,1,.36-.36h1.16a.32.32,0,0,1,.36.36V82a.32.32,0,0,1-.36.36h-1.16a.32.32,0,0,1-.36-.36V81h-.1A2.61,2.61,0,0,1,548,82.37Z"/><path class="cls-3" d="M557,82.37h-1.16a.32.32,0,0,1-.36-.36V69.56a.32.32,0,0,1,.36-.36H557a.32.32,0,0,1,.36.36v1h.1a2.24,2.24,0,0,1,1-1,3.38,3.38,0,0,1,1.7-.41h1q.34,0,.33.36v1a.41.41,0,0,1-.08.27.27.27,0,0,1-.26.06h-1.39a2.26,2.26,0,0,0-1.78.7,2.77,2.77,0,0,0-.62,1.91V82A.32.32,0,0,1,557,82.37Z"/><path class="cls-3" d="M570.66,81.08v1c0,.22-.12.34-.36.34h-3.74a3.51,3.51,0,0,1-3.82-3.82V73a3.51,3.51,0,0,1,3.82-3.82h3.74a.32.32,0,0,1,.36.36v1c0,.22-.12.34-.36.34h-3.54q-2.14,0-2.14,2.25v5.37q0,2.25,2.14,2.25h3.54A.32.32,0,0,1,570.66,81.08Z"/><path class="cls-3" d="M581.56,82.37h-5.47a3.51,3.51,0,0,1-3.82-3.82V73a3.51,3.51,0,0,1,3.82-3.82h2.17a3.77,3.77,0,0,1,2.79,1A3.81,3.81,0,0,1,582,73V76.3q0,.39-.36.39h-7.3q-.26,0-.26.23V78.5a2,2,0,0,0,2.17,2.25h5.27a.32.32,0,0,1,.36.36V82C581.92,82.26,581.8,82.37,581.56,82.37Zm-7.18-7H580a.23.23,0,0,0,.26-.26v-2A1.94,1.94,0,0,0,578,70.86h-1.75a1.94,1.94,0,0,0-2.17,2.22v2A.23.23,0,0,0,574.38,75.32Z"/><rect class="cls-4" x="291.02" y="25.95" width="391.65" height="157.52"/><path class="cls-2" d="M443,229.18h-8.71q-2.28,0-2.28-2.18V175a1,1,0,0,0-1.14-1.14H419.08a1.93,1.93,0,0,1-2.18-2.18v-7.05a1.92,1.92,0,0,1,2.18-2.18h39.21a1.92,1.92,0,0,1,2.18,2.18v7.05a1.93,1.93,0,0,1-2.18,2.18H446.46q-1.24,0-1.24,1.14v52A1.93,1.93,0,0,1,443,229.18Z"/><path class="cls-2" d="M488,229.18h-3.42q-8,0-12.08-4.36t-4.1-12.55V178.45a1.93,1.93,0,0,1,2.18-2.18h8.82a1.93,1.93,0,0,1,2.18,2.18v33.19q0,3.32,1.4,4.72t4.62,1.4h3.84q7.16,0,7.16-7.88V178.45a1.93,1.93,0,0,1,2.18-2.18h8.71q2.28,0,2.28,2.18V227q0,2.18-2.28,2.18h-8.71a1.93,1.93,0,0,1-2.18-2.18v-3.42h-.42a7.87,7.87,0,0,1-4,4.2A13.93,13.93,0,0,1,488,229.18Z"/><path class="cls-2" d="M525.81,187.69h-4.15a2.63,2.63,0,0,1-1.71-.42,2.21,2.21,0,0,1-.47-1.66v-7.16a1.93,1.93,0,0,1,2.18-2.18h4.15a1,1,0,0,0,1.14-1.14v-9.85q0-2.18,2.28-2.18H538a1.93,1.93,0,0,1,2.18,2.18v9.85q0,1.14,1.25,1.14h8.09a1.92,1.92,0,0,1,2.18,2.18v7.16a2.23,2.23,0,0,1-.47,1.61,2.41,2.41,0,0,1-1.71.47h-8.09q-1.25,0-1.25,1.14v22.92q0,3.22,1.45,4.62t4.77,1.4h4.15a1.93,1.93,0,0,1,2.18,2.18v7.16a2.23,2.23,0,0,1-.47,1.61,2.41,2.41,0,0,1-1.71.47h-6.33q-8.19,0-12.71-4.36T527,212.37V188.83A1,1,0,0,0,525.81,187.69Z"/><path class="cls-2" d="M588.16,229.18h-9.23q-8.2,0-12.66-4.36t-4.46-12.55V193.18q0-8.19,4.46-12.55t12.66-4.36h9.23q8.09,0,12.6,4.41t4.51,12.5v19.09q0,8.09-4.51,12.5T588.16,229.18Zm-7.26-11.31h5.29q3.32,0,4.72-1.35t1.4-4.67V193.6q0-3.32-1.4-4.67t-4.72-1.35h-5.29q-3.32,0-4.67,1.35t-1.35,4.67v18.26q0,3.32,1.35,4.67T580.89,217.87Z"/><path class="cls-2" d="M628.19,229.18h-8.82A1.93,1.93,0,0,1,617.2,227V178.45a1.93,1.93,0,0,1,2.18-2.18h8.82a1.92,1.92,0,0,1,2.18,2.18V182h.42a8.07,8.07,0,0,1,4-4.25,13.5,13.5,0,0,1,6.12-1.45h3.73q2.07,0,2.08,2.18v7.16a2.42,2.42,0,0,1-.47,1.71,2,2,0,0,1-1.61.36h-7.16q-7.16,0-7.16,8.09V227A1.93,1.93,0,0,1,628.19,229.18Z"/><path class="cls-2" d="M655.48,167.36v-9a1.83,1.83,0,0,1,2.08-2.08h9q2.07,0,2.07,2v9.13a1.83,1.83,0,0,1-2.07,2.07h-9A1.83,1.83,0,0,1,655.48,167.36Zm0,59.64V178.45q0-2.18,2.08-2.18h8.92a1.92,1.92,0,0,1,2.18,2.18V227a2.39,2.39,0,0,1-.47,1.76,2.42,2.42,0,0,1-1.61.42h-8.92A1.93,1.93,0,0,1,655.48,227Z"/><path class="cls-2" d="M700.7,229.18h-2.49q-8.2,0-12.66-4.36t-4.46-12.55V193.18q0-8.19,4.46-12.55t12.66-4.36h24q2.28,0,2.28,2.18V227q0,2.18-2.28,2.18h-8.71a1.93,1.93,0,0,1-2.18-2.18v-3.42h-.42a7.87,7.87,0,0,1-4,4.2A13.92,13.92,0,0,1,700.7,229.18Zm10.58-19.29V188.83q0-1.14-1.25-1.14h-9.75q-3.32,0-4.67,1.4t-1.35,4.72v17.84q0,3.32,1.35,4.72t4.67,1.4h3.84Q711.28,217.77,711.28,209.88Z"/><path class="cls-2" d="M748.94,229.18h-8.82a1.93,1.93,0,0,1-2.18-2.18V158.43a1.93,1.93,0,0,1,2.18-2.18h8.82a1.93,1.93,0,0,1,2.18,2.18V227A1.93,1.93,0,0,1,748.94,229.18Z"/><path class="cls-2" d="M784.62,229.18H764.91q-2.08,0-2.08-2.18v-6.64a2.42,2.42,0,0,1,.42-1.61,2.21,2.21,0,0,1,1.66-.47h17.32q5.08,0,5.08-3.11v-.52q0-2.49-4.25-4.77l-10.27-5.71a23.49,23.49,0,0,1-7.78-5.81,12.39,12.39,0,0,1-2.49-8q0-7.26,3.84-10.68t12-3.42h17.32q2.07,0,2.08,2.18v6.74a2.43,2.43,0,0,1-.42,1.61,2.21,2.21,0,0,1-1.66.47H781.3q-5.08,0-5.08,2.59v.52q0,2.28,4.46,4.67l10.48,6.22q5.39,2.9,7.57,6a13.57,13.57,0,0,1,2.18,8Q800.9,229.18,784.62,229.18Z"/><g id="_Group_" data-name="&lt;Group&gt;"><polygon class="cls-2" points="264.27 62.54 264.27 123.35 211.61 153.75 211.61 92.97 264.27 62.54"/><polygon class="cls-5" points="158.95 62.57 158.95 62.56 158.95 62.54 211.61 32.14 264.27 62.54 211.61 92.97 158.95 62.57"/><polygon class="cls-3" points="211.61 153.77 211.61 214.58 158.95 244.98 158.95 184.18 211.61 153.77"/><polygon class="cls-2" points="211.61 153.75 211.61 153.77 158.97 123.38 158.99 123.37 211.61 153.75"/><polygon class="cls-6" points="211.61 92.97 211.61 153.75 158.99 123.37 211.61 92.97"/><polygon class="cls-6" points="158.95 62.57 211.61 92.97 158.99 123.37 158.95 123.35 158.95 62.56 158.95 62.57"/><polygon class="cls-7" points="211.61 153.77 158.95 184.18 158.95 184.14 158.95 182.37 158.95 123.4 158.97 123.38 211.61 153.77"/><polygon class="cls-8" points="158.95 123.37 158.93 123.38 106.29 92.97 106.31 92.96 158.95 62.56 158.95 123.35 158.99 123.37 158.97 123.38 158.95 123.37"/><polygon class="cls-6" points="158.97 123.38 158.95 123.4 158.95 123.37 158.97 123.38"/><polygon class="cls-9" points="158.95 184.18 158.95 244.98 106.29 214.58 106.29 154.06 106.29 153.77 158.95 184.18"/><polygon class="cls-7" points="158.95 184.14 158.95 184.18 106.29 153.77 158.93 123.38 158.95 123.4 158.95 182.37 158.95 184.14"/><polygon class="cls-7" points="158.95 123.37 158.95 123.4 158.93 123.38 158.95 123.37"/><polygon class="cls-8" points="158.93 123.38 106.29 153.77 106.29 93.28 106.29 92.97 158.93 123.38"/><polygon class="cls-10" points="158.97 184.18 158.97 123.4 211.63 92.97 211.63 153.78 158.97 184.18"/><polygon class="cls-11" points="158.97 62.53 106.31 92.96 53.66 62.56 53.65 62.55 53.65 62.53 106.31 32.13 158.97 62.53"/><polygon class="cls-12" points="158.97 123.37 158.97 184.18 106.31 153.78 106.31 93.26 106.31 92.98 106.31 92.97 158.97 123.37"/></g><path class="cls-13" d="M750.09,0H688.93L864,175.07V113.91Z"/><path class="cls-1" d="M756.69,52.46l15.72-15.72a.69.69,0,0,1,1.1,0L779.79,43a6.19,6.19,0,0,1,2.09,4.29,5.93,5.93,0,0,1-2,4.26l-1.07,1.07a3.88,3.88,0,0,1-4.94.81,3.86,3.86,0,0,1,.82,2.53,4,4,0,0,1-1.35,2.6l-1.57,1.57a5.93,5.93,0,0,1-4.26,2,6.15,6.15,0,0,1-4.27-2.07l-6.54-6.54A.69.69,0,0,1,756.69,52.46Zm5.83,1.39,2.93,2.93a2.53,2.53,0,0,0,1.59.89,2.17,2.17,0,0,0,1.54-.78l1.52-1.52a2.06,2.06,0,0,0,.76-1.54,2.74,2.74,0,0,0-.94-1.62L767,49.32a.36.36,0,0,0-.58,0l-4,4A.36.36,0,0,0,762.52,53.85Zm7.22-7.22,2.67,2.67a2.55,2.55,0,0,0,1.58.88,2.13,2.13,0,0,0,1.56-.77l1-1a2.17,2.17,0,0,0,.79-1.54,2.48,2.48,0,0,0-.86-1.57l-2.7-2.7a.36.36,0,0,0-.58,0L769.74,46A.36.36,0,0,0,769.74,46.63Z"/><path class="cls-1" d="M779.76,76.63l-8.55-8.55a.69.69,0,0,1,0-1.1l15.72-15.72a.69.69,0,0,1,1.1,0l8.56,8.56a.67.67,0,0,1,0,1.07l-1.78,1.78a.67.67,0,0,1-1.07,0l-5.47-5.47a.38.38,0,0,0-.6,0l-3.4,3.4a.38.38,0,0,0,0,.6l4.47,4.47a.69.69,0,0,1,0,1.1L787,68.55a.69.69,0,0,1-1.1,0l-4.47-4.47a.38.38,0,0,0-.6,0l-3.64,3.64a.38.38,0,0,0,0,.6l5.47,5.47a.67.67,0,0,1,0,1.07l-1.78,1.78A.67.67,0,0,1,779.76,76.63Z"/><path class="cls-1" d="M788.4,85.27l-2.2-2.2a.7.7,0,0,1,0-1.13l13.11-13.11a.36.36,0,0,0,0-.57l-3-3a.69.69,0,0,1,0-1.1l1.78-1.78a.69.69,0,0,1,1.1,0l9.89,9.89a.69.69,0,0,1,0,1.1l-1.78,1.78a.69.69,0,0,1-1.1,0l-3-3a.38.38,0,0,0-.6,0L789.5,85.27A.69.69,0,0,1,788.4,85.27Z"/><path class="cls-1" d="M796.53,93.4,794,90.89q-.47-.47.24-.86l19.86-11.59a1.06,1.06,0,0,1,1.33.24l3.48,3.48a1,1,0,0,1,.24,1.33l-11.59,19.86q-.39.71-.86.24l-2.51-2.51a.72.72,0,0,1-.27-.51,1.25,1.25,0,0,1,.27-.59l2.15-3.61-5.1-5.1-3.61,2.15a1.14,1.14,0,0,1-.6.26A.74.74,0,0,1,796.53,93.4ZM814,83.54l-9.45,5.68,3.87,3.87,5.68-9.45Z"/></svg>