<?xml version="1.0" encoding="utf-8"?>
<!-- Generator: Adobe Illustrator 24.0.3, SVG Export Plug-In . SVG Version: 6.00 Build 0)  -->
<svg version="1.1" id="Layer_1" xmlns="http://www.w3.org/2000/svg" xmlns:xlink="http://www.w3.org/1999/xlink" x="0px" y="0px"
	 viewBox="0 0 864 252" style="enable-background:new 0 0 864 252;" xml:space="preserve">
<style type="text/css">
	.st0{fill:#FFFFFF;}
	.st1{fill:#93C4CA;}
	.st2{fill:#5BB6C8;}
	.st3{fill:none;}
	.st4{fill:#8CBAC0;}
	.st5{fill:#87B3B9;}
	.st6{fill:#54A7B7;}
	.st7{fill:#FDBA54;}
	.st8{fill:#57AEBE;}
	.st9{opacity:0.25;fill:#93C4CA;enable-background:new    ;}
	.st10{fill:#EFB050;}
	.st11{opacity:0.25;fill:#50A6B7;enable-background:new    ;}
</style>
<title>djTutorialLogoWhite</title>
<path class="st0" d="M278,76.5V26c-0.1-0.7,0.4-1.3,1-1.4c0.1,0,0.2,0,0.4,0h20.4c4,0,7.2,1.1,9.5,3.4s3.5,5.4,3.4,9.5v27.6
	c0,4-1.1,7.2-3.4,9.4s-5.5,3.4-9.5,3.4h-20.4c-0.7,0.1-1.3-0.4-1.4-1.1C278,76.7,278,76.6,278,76.5z M287,70.9h11.7c4,0,6-2,6-6.1
	V37.8c0-4.1-2-6.1-6-6.1h-11.7c-0.6,0-0.9,0.3-0.9,0.8V70c0,0.4,0.3,0.8,0.7,0.9C286.8,70.9,286.8,70.9,287,70.9L287,70.9z"/>
<path class="st0" d="M339.6,77.9h-3.2c-4.1,0-7.2-1.1-9.5-3.4c-2.2-2.3-3.4-5.4-3.4-9.4V48.5c0-4.1,1.1-7.2,3.4-9.5s5.4-3.4,9.5-3.4
	h18.6c1,0,1.5,0.5,1.5,1.4v39.5c0,0.9-0.5,1.4-1.5,1.4h-5.2c-0.7,0.1-1.3-0.4-1.4-1c0-0.1,0-0.2,0-0.4v-3H348
	C346.7,76.4,343.9,77.9,339.6,77.9z M348.3,63.8V43.5c0-0.6-0.3-0.8-0.9-0.8h-9.9c-4,0-6,2-6,6.1v15.9c0,4.1,2,6.1,6,6.1h4
	C346,70.9,348.3,68.5,348.3,63.8z"/>
<path class="st0" d="M369.3,42.7h-4c-0.4,0-0.8-0.1-1.1-0.3c-0.2-0.3-0.3-0.6-0.3-1v-4.3c-0.1-0.7,0.4-1.3,1.1-1.4
	c0.1,0,0.2,0,0.3,0h4c0.4,0.1,0.8-0.2,0.8-0.6c0-0.1,0-0.1,0-0.2v-7.5c0-0.9,0.5-1.4,1.5-1.4h5.2c0.7-0.1,1.3,0.4,1.4,1.1
	c0,0.1,0,0.2,0,0.3v7.5c0,0.5,0.3,0.8,0.9,0.8h7.7c1,0,1.5,0.5,1.5,1.4v4.3c0,0.9-0.5,1.3-1.5,1.3h-7.7c-0.6,0-0.9,0.3-0.9,0.8v21.3
	c0,4,2.1,6,6.2,6h3.2c1,0,1.5,0.5,1.5,1.4v4.3c0,0.9-0.5,1.3-1.5,1.3h-4.5c-4.1,0-7.3-1.1-9.6-3.3c-2.3-2.2-3.5-5.3-3.5-9.4V43.5
	c0.1-0.4-0.2-0.8-0.6-0.8C369.4,42.7,369.3,42.7,369.3,42.7z"/>
<path class="st0" d="M413.6,77.9h-3.2c-4.1,0-7.2-1.1-9.5-3.4c-2.2-2.3-3.4-5.4-3.4-9.4V48.5c0-4.1,1.1-7.2,3.4-9.5s5.4-3.4,9.5-3.4
	h18.6c1,0,1.5,0.5,1.5,1.4v39.5c0,0.9-0.5,1.4-1.5,1.4h-5.2c-0.7,0.1-1.3-0.4-1.4-1c0-0.1,0-0.2,0-0.4v-3H422
	C420.7,76.4,417.9,77.9,413.6,77.9z M422.3,63.8V43.5c0-0.6-0.3-0.8-0.9-0.8h-9.9c-4,0-6,2-6,6.1v15.9c0,4.1,2,6.1,6,6.1h4
	C420,70.9,422.3,68.5,422.3,63.8L422.3,63.8z"/>
<path class="st0" d="M433.3,77.7h5.2c0.9,0,1.4,0.4,1.4,1.3v39.1c0,4-1.1,7.1-3.4,9.4c-2.3,2.3-5.4,3.4-9.5,3.4h-8.3
	c-4.1,0-7.3-1.1-9.5-3.4c-2.3-2.3-3.4-5.4-3.4-9.4v-7.5c0-0.9,0.5-1.4,1.5-1.4h5.2c0.7-0.1,1.3,0.4,1.4,1.1c0,0.1,0,0.2,0,0.3v7.1
	c0,4.1,2,6.1,6,6.1h5.9c4,0,6-2,6-6.1V79.1C431.8,78.2,432.3,77.7,433.3,77.7z"/>
<path class="st0" d="M471.3,131H464c-4.1,0-7.2-1.1-9.5-3.4c-2.2-2.3-3.4-5.4-3.4-9.4v-16.6c0-4.1,1.1-7.2,3.4-9.5
	c2.2-2.2,5.4-3.4,9.5-3.3h7.3c4,0,7.2,1.1,9.5,3.4c2.3,2.2,3.5,5.4,3.4,9.5v16.6c0,4-1.1,7.1-3.4,9.4
	C478.5,129.9,475.3,131,471.3,131z M465.2,124h5c4,0,6-2,6-6v-16.2c0-4-2-6-6-6h-5c-2.1,0-3.6,0.5-4.6,1.4c-1,1.3-1.6,2.9-1.4,4.6
	v16c-0.1,1.7,0.4,3.3,1.4,4.6C461.5,123.5,463.1,123.9,465.2,124L465.2,124z"/>
<path class="st0" d="M495.4,81.7v-7.5c-0.1-0.6,0.3-1.2,1-1.3c0.1,0,0.2,0,0.3,0h5.4c0.6-0.1,1.2,0.3,1.3,1c0,0.1,0,0.2,0,0.3v7.5
	c0,0.9-0.4,1.4-1.3,1.4h-5.4C495.9,83.1,495.4,82.6,495.4,81.7z M495.4,129.6V90.1c0-0.9,0.4-1.4,1.3-1.4h5.3
	c0.7-0.1,1.3,0.4,1.4,1.1c0,0.1,0,0.2,0,0.3v39.4c0,0.4-0.1,0.8-0.3,1.1c-0.3,0.2-0.6,0.3-1,0.3h-5.3c-0.7,0.1-1.3-0.4-1.4-1
	C495.4,129.8,495.4,129.7,495.4,129.6z"/>
<path class="st0" d="M522.2,131H517c-0.7,0.1-1.3-0.4-1.4-1c0-0.1,0-0.2,0-0.4V90.1c-0.1-0.7,0.4-1.3,1-1.4c0.1,0,0.2,0,0.4,0h5.2
	c0.7-0.1,1.3,0.4,1.4,1.1c0,0.1,0,0.2,0,0.3v3h0.3c1.3-2.9,4.1-4.4,8.4-4.4h3.7c4,0,7.1,1.1,9.3,3.3c2.2,2.2,3.3,5.4,3.2,9.5v28
	c0,0.9-0.5,1.4-1.5,1.4h-5.2c-0.7,0.1-1.3-0.4-1.4-1c0-0.1,0-0.2,0-0.4v-27.7c0-4.1-2-6.1-6-6.1h-3.9c-4.5,0-6.8,2.3-6.8,7v26.8
	c0.1,0.7-0.3,1.3-1,1.5C522.5,131,522.3,131,522.2,131z"/>
<path class="st0" d="M560.9,95.8h-4c-0.4,0-0.8-0.1-1.1-0.3c-0.2-0.3-0.3-0.6-0.3-1v-4.3c-0.1-0.7,0.4-1.3,1.1-1.4
	c0.1,0,0.2,0,0.3,0h4c0.4,0.1,0.8-0.2,0.8-0.6c0-0.1,0-0.1,0-0.2v-7.5c0-0.9,0.5-1.4,1.5-1.4h5.2c0.7-0.1,1.3,0.4,1.4,1.1
	c0,0.1,0,0.2,0,0.3v7.5c0,0.6,0.3,0.8,0.9,0.8h7.7c1,0,1.5,0.5,1.5,1.4v4.3c0,0.9-0.5,1.3-1.5,1.3h-7.7c-0.6,0-0.9,0.3-0.9,0.8v21.3
	c0,4,2.1,6,6.2,6h3.2c1,0,1.5,0.5,1.5,1.4v4.3c0,0.9-0.5,1.3-1.5,1.3h-4.5c-4.1,0-7.3-1.1-9.6-3.3c-2.3-2.2-3.5-5.3-3.5-9.4V96.6
	c0.1-0.4-0.2-0.8-0.6-0.8C561,95.8,560.9,95.8,560.9,95.8z"/>
<rect x="431.9" y="51.3" class="st1" width="25.1" height="25.1"/>
<rect x="405.3" y="79" class="st2" width="25.1" height="25.1"/>
<rect x="271.9" y="8.8" class="st3" width="419.1" height="168.6"/>
<path class="st1" d="M434.6,226.3h-9.3c-1.6,0-2.4-0.8-2.4-2.3v-55.6c0.1-0.6-0.3-1.1-0.9-1.2c-0.1,0-0.2,0-0.3,0h-12.7
	c-1.1,0.2-2.2-0.6-2.3-1.7c0-0.2,0-0.4,0-0.6v-7.6c-0.2-1.1,0.6-2.2,1.7-2.3c0.2,0,0.4,0,0.6,0h42c1.1-0.2,2.2,0.6,2.3,1.7
	c0,0.2,0,0.4,0,0.6v7.6c0.2,1.1-0.6,2.2-1.7,2.3c-0.2,0-0.4,0-0.6,0h-12.7c-0.9,0-1.3,0.4-1.3,1.2V224c0.1,1.1-0.7,2.2-1.8,2.3
	C434.9,226.3,434.7,226.3,434.6,226.3z"/>
<path class="st1" d="M482.6,226.3H479c-5.7,0-10-1.6-12.9-4.7c-2.9-3.1-4.4-7.6-4.4-13.4V172c-0.2-1.1,0.6-2.2,1.7-2.3
	c0.2,0,0.4,0,0.6,0h9.4c1.1-0.2,2.2,0.6,2.3,1.7c0,0.2,0,0.4,0,0.6v35.5c0,2.4,0.5,4,1.5,5c1,1,2.6,1.5,4.9,1.5h4.1
	c5.1,0,7.7-2.8,7.7-8.4V172c-0.2-1.1,0.6-2.2,1.7-2.3c0.2,0,0.4,0,0.6,0h9.3c1.6,0,2.4,0.8,2.4,2.3v52c0,1.6-0.8,2.3-2.4,2.3h-9.3
	c-1.1,0.2-2.2-0.6-2.3-1.7c0-0.2,0-0.4,0-0.6v-3.7h-0.4c-0.8,2-2.4,3.6-4.3,4.5C487.2,225.8,484.9,226.3,482.6,226.3z"/>
<path class="st1" d="M523.2,181.9h-4.4c-0.6,0.1-1.3-0.1-1.8-0.4c-0.4-0.5-0.6-1.1-0.5-1.8V172c-0.2-1.1,0.6-2.2,1.7-2.3
	c0.2,0,0.4,0,0.6,0h4.4c0.6,0.1,1.1-0.3,1.2-0.9c0-0.1,0-0.2,0-0.3v-10.5c0-1.6,0.8-2.3,2.4-2.3h9.3c1.1-0.2,2.2,0.6,2.3,1.7
	c0,0.2,0,0.4,0,0.6v10.5c0,0.8,0.4,1.2,1.3,1.2h8.7c1.1-0.2,2.2,0.6,2.3,1.7c0,0.2,0,0.4,0,0.6v7.7c0.1,0.6-0.1,1.2-0.5,1.7
	c-0.5,0.4-1.2,0.6-1.8,0.5h-8.7c-0.9,0-1.3,0.4-1.3,1.2v24.5c0,2.3,0.5,3.9,1.5,4.9s2.7,1.5,5.1,1.5h4.4c1.1-0.2,2.2,0.6,2.3,1.7
	c0,0.2,0,0.4,0,0.6v7.7c0.1,0.6-0.1,1.2-0.5,1.7c-0.5,0.4-1.2,0.6-1.8,0.5h-6.8c-5.8,0-10.4-1.6-13.6-4.7c-3.2-3.1-4.8-7.5-4.8-13.3
	v-25.2c0.1-0.6-0.3-1.1-0.9-1.2C523.4,181.9,523.2,181.9,523.2,181.9z"/>
<path class="st1" d="M589.9,226.3H580c-5.8,0-10.4-1.6-13.5-4.7c-3.2-3.1-4.8-7.6-4.8-13.4v-20.4c0-5.8,1.6-10.3,4.8-13.4
	c3.2-3.1,7.7-4.7,13.5-4.7h9.9c5.8,0,10.3,1.6,13.5,4.7s4.8,7.6,4.8,13.4v20.4c0,5.8-1.6,10.2-4.8,13.4S595.6,226.3,589.9,226.3z
	 M582.1,214.2h5.7c2.4,0,4-0.5,5-1.4s1.5-2.6,1.5-5v-19.5c0-2.4-0.5-4-1.5-5c-1-1-2.7-1.4-5-1.4h-5.7c-2.4,0-4,0.5-5,1.4
	c-1,1-1.4,2.6-1.4,5v19.5c0,2.4,0.5,4,1.4,5S579.7,214.2,582.1,214.2L582.1,214.2z"/>
<path class="st1" d="M632.7,226.3h-9.4c-1.1,0.2-2.2-0.6-2.3-1.7c0-0.2,0-0.4,0-0.6V172c-0.2-1.1,0.6-2.2,1.7-2.3c0.2,0,0.4,0,0.6,0
	h9.4c1.1-0.1,2.2,0.7,2.3,1.8c0,0.2,0,0.4,0,0.5v3.8h0.4c0.8-2,2.4-3.6,4.3-4.6c2-1,4.3-1.6,6.5-1.6h4c1.5,0,2.2,0.8,2.2,2.3v7.7
	c0.1,0.7-0.1,1.3-0.5,1.8c-0.5,0.4-1.1,0.5-1.7,0.4h-7.6c-5.1,0-7.7,2.9-7.7,8.7V224c0.1,1.1-0.7,2.2-1.8,2.3
	C633.1,226.3,632.9,226.3,632.7,226.3z"/>
<path class="st1" d="M661.9,160.1v-9.7c-0.1-1.1,0.7-2.1,1.8-2.2c0.2,0,0.3,0,0.5,0h9.7c1.5,0,2.2,0.7,2.2,2.1v9.8
	c0.1,1.1-0.7,2.1-1.8,2.2c-0.2,0-0.3,0-0.5,0h-9.7c-1.1,0.1-2.1-0.7-2.2-1.8C661.9,160.4,661.9,160.3,661.9,160.1z M661.9,224v-52
	c0-1.6,0.7-2.3,2.2-2.3h9.5c1.1-0.2,2.2,0.6,2.3,1.7c0,0.2,0,0.4,0,0.6v52c0.1,0.7-0.1,1.4-0.5,1.9c-0.5,0.3-1.1,0.5-1.7,0.4h-9.5
	c-1.1,0.2-2.2-0.6-2.3-1.7C661.9,224.4,661.9,224.2,661.9,224L661.9,224z"/>
<path class="st1" d="M710.3,226.3h-2.7c-5.8,0-10.4-1.6-13.5-4.7c-3.2-3.1-4.8-7.6-4.8-13.4v-20.4c0-5.8,1.6-10.3,4.8-13.4
	c3.2-3.1,7.7-4.7,13.5-4.7h25.6c1.6,0,2.4,0.8,2.4,2.3v52c0,1.6-0.8,2.3-2.4,2.3H724c-1.1,0.2-2.2-0.6-2.3-1.7c0-0.2,0-0.4,0-0.6
	v-3.7h-0.4c-0.8,2-2.4,3.6-4.3,4.5C714.8,225.8,712.6,226.3,710.3,226.3z M721.6,205.6v-22.5c0-0.8-0.4-1.2-1.3-1.2h-10.4
	c-2.4,0-4,0.5-5,1.5s-1.4,2.7-1.4,5.1v19.1c0,2.4,0.5,4,1.4,5c1,1,2.6,1.5,5,1.5h4.2C719.1,214.1,721.6,211.3,721.6,205.6
	L721.6,205.6z"/>
<path class="st1" d="M761.9,226.3h-9.4c-1.1,0.2-2.2-0.6-2.3-1.7c0-0.2,0-0.4,0-0.6v-73.4c-0.2-1.1,0.6-2.2,1.7-2.3
	c0.2,0,0.4,0,0.6,0h9.4c1.1-0.2,2.2,0.6,2.3,1.7c0,0.2,0,0.4,0,0.6V224c0.1,1.1-0.7,2.2-1.8,2.3
	C762.3,226.3,762.1,226.3,761.9,226.3z"/>
<path class="st1" d="M800.1,226.3H779c-1.5,0-2.2-0.8-2.2-2.3v-7.1c-0.1-0.6,0.1-1.2,0.4-1.7c0.5-0.4,1.1-0.6,1.8-0.5h18.5
	c3.6,0,5.4-1.1,5.4-3.3v-0.6c0-1.8-1.5-3.5-4.5-5.1l-11-6.1c-3.2-1.5-6-3.6-8.3-6.2c-1.9-2.5-2.8-5.5-2.7-8.6c0-5.2,1.4-9,4.1-11.4
	s7-3.7,12.9-3.7H812c1.5,0,2.2,0.8,2.2,2.3v7.2c0.1,0.6-0.1,1.2-0.4,1.7c-0.5,0.4-1.1,0.6-1.8,0.5h-15.5c-3.6,0-5.4,0.9-5.4,2.8v0.6
	c0,1.6,1.6,3.3,4.8,5l11.2,6.7c3.8,2.1,6.5,4.2,8.1,6.4c1.7,2.6,2.5,5.6,2.3,8.6C817.5,221.3,811.7,226.3,800.1,226.3z"/>
<g id="_Group_">
	<polygon class="st1" points="243.3,48 243.3,113 186.9,145.6 186.9,80.5 	"/>
	<polygon class="st4" points="130.6,48 130.6,48 130.6,48 186.9,15.4 243.3,48 186.9,80.5 	"/>
	<polygon class="st2" points="186.9,145.6 186.9,210.7 130.6,243.2 130.6,178.1 	"/>
	<polygon class="st1" points="186.9,145.6 186.9,145.6 130.6,113.1 130.6,113.1 	"/>
	<polygon class="st5" points="186.9,80.5 186.9,145.6 130.6,113.1 	"/>
	<polygon class="st5" points="130.6,48 186.9,80.5 130.6,113.1 130.6,113 130.6,48 	"/>
	<polygon class="st6" points="186.9,145.6 130.6,178.1 130.6,178.1 130.6,176.2 130.6,113.1 130.6,113.1 	"/>
	<polygon class="st7" points="130.6,113.1 130.6,113.1 74.2,80.5 74.2,80.5 130.6,48 130.6,113 130.6,113.1 130.6,113.1 	"/>
	<polygon class="st5" points="130.6,113.1 130.6,113.1 130.6,113.1 	"/>
	<polygon class="st8" points="130.6,178.1 130.6,243.2 74.2,210.7 74.2,145.9 74.2,145.6 	"/>
	<polygon class="st6" points="130.6,178.1 130.6,178.1 74.2,145.6 130.6,113.1 130.6,113.1 130.6,176.2 	"/>
	<polygon class="st6" points="130.6,113.1 130.6,113.1 130.6,113.1 	"/>
	<polygon class="st7" points="130.6,113.1 74.2,145.6 74.2,80.9 74.2,80.5 	"/>
	<polygon class="st9" points="130.6,178.1 130.6,113.1 186.9,80.5 186.9,145.6 	"/>
	<polygon class="st10" points="130.6,48 74.2,80.5 17.9,48 17.9,48 17.9,48 74.2,15.4 	"/>
	<polygon class="st11" points="130.6,113.1 130.6,178.1 74.2,145.6 74.2,80.8 74.2,80.5 74.2,80.5 	"/>
</g>
</svg>